<?xml version="1.0"?>
<svg xmlns="http://www.w3.org/2000/svg" viewBox="0 0 300 110" width="300" height="110" role="img" aria-label="Shunt"><defs><filter id="g" x="-40%" y="-40%" width="180%" height="180%"><feDropShadow dx="0" dy="0" stdDeviation="2.4" flood-color="#9184d9" flood-opacity="0.7"></feDropShadow></filter></defs><g transform="translate(6,10) scale(0.9)"><g filter="url(#g)" fill="none" stroke-linecap="round" stroke-linejoin="round"><g stroke="#3f424d" stroke-width="9"><path d="M8 50 H28"></path><path d="M72 50 H90"></path><path d="M28 50 C28 36 40 28 50 28 C60 28 72 36 72 50"></path><path d="M28 50 C28 64 40 72 50 72 C60 72 72 64 72 50"></path></g><g stroke="#9184d9" stroke-width="4.4"><path d="M8 50 H28"></path><path d="M72 50 H86"></path><path d="M28 50 C28 36 40 28 50 28 C60 28 72 36 72 50"></path><path d="M28 50 C28 64 40 72 50 72 C60 72 72 64 72 50"></path><path d="M82 44 L90 50 L82 56"></path></g><circle cx="50" cy="50" r="7.5" fill="none" stroke="#a7a1db" stroke-width="3"></circle><circle cx="50" cy="50" r="3.6" fill="#a7a1db"></circle></g><circle cx="52.4" cy="47.6" r="1.5" fill="#e9e9ed"></circle></g><text x="116" y="55" font-family="Inter, system-ui, sans-serif" font-size="62" font-weight="600" letter-spacing="-1.6" fill="#e9e9ed" dominant-baseline="central">Shunt</text></svg>